<?xml version="1.0" encoding="utf-8"?>
<!-- Generator: Adobe Illustrator 27.3.1, SVG Export Plug-In . SVG Version: 6.00 Build 0)  -->
<svg version="1.1" id="Layer_1" xmlns="http://www.w3.org/2000/svg" xmlns:xlink="http://www.w3.org/1999/xlink" x="0px" y="0px"
	 viewBox="0 0 462.752136 317.14682" style="enable-background:new 0 0 462.752136 317.14682;" xml:space="preserve">
<g>
	<path d="M0,317.14682v-61.711334h37.548416v10.460022H10.184025v13.661499h25.418663v10.404816H10.184025v16.752563H38.47298
		v10.432434H0z"/>
	<path d="M54.121605,317.14682v-61.711334h9.935631l20.713036,41.205261v-41.205261h9.494049v61.711334H83.997505
		l-20.354252-40.239319v40.239319H54.121605z"/>
	<path d="M135.469604,294.515625v-10.459991h22.023987v24.590698c-2.235519,2.594299-5.381805,4.857422-9.438858,6.734131
		c-4.057037,1.87674-8.141693,2.815094-12.253937,2.815094c-4.995422,0-9.383659-1.214355-13.219917-3.670654
		c-3.808662-2.456299-6.816948-6.126984-9.052467-11.039581c-2.235519-4.88504-3.339478-10.653229-3.339478-17.276978
		c0-6.789337,1.103958-12.585144,3.367081-17.414948c2.263115-4.829834,5.188606-8.445282,8.80407-10.818817
		c3.615471-2.401108,7.920906-3.58786,12.943932-3.58786c6.044174,0,10.873993,1.545547,14.489456,4.609039
		c3.643066,3.091064,5.988983,7.589722,7.010147,13.551086l-10.101227,2.29071
		c-0.745178-3.173859-2.152725-5.574982-4.16745-7.258514s-4.415833-2.539124-7.230927-2.539124
		c-4.360641,0-7.865715,1.683533-10.570419,5.078217c-2.677101,3.367096-4.029449,8.528107-4.029449,15.455444
		c0,7.451721,1.462746,13.109497,4.360641,16.973358c2.511505,3.339478,5.878586,4.995422,10.156418,4.995422
		c1.987137,0,4.057053-0.469177,6.209778-1.407532c2.152725-0.938385,4.057053-2.207947,5.740585-3.836273v-7.782928H135.469604z"/>
	<path d="M173.501007,317.14682v-61.711334h10.184021v61.711334H173.501007z"/>
	<path d="M200.46521,317.14682v-61.711334h9.935638l20.685425,41.205261v-41.205261h9.494049v61.711334h-10.266815
		l-20.354248-40.239319v40.239319H200.46521z"/>
	<path d="M258.271271,317.14682v-61.711334h37.534607v10.460022h-27.350586v13.661499h25.418671v10.404816h-25.418671v16.752563
		h28.261353v10.432434H258.271271z"/>
	<path d="M312.310089,317.14682v-61.711334h37.534607v10.460022H322.49411v13.661499h25.418671v10.404816H322.49411v16.752563
		h28.261353v10.432434H312.310089z"/>
	<path d="M366.348877,317.14682v-61.711334h21.499634c5.492188,0,9.411255,0.551971,11.78476,1.683533
		c2.345917,1.103973,4.277832,3.008301,5.795776,5.768188c1.517944,2.7323,2.29071,5.988983,2.29071,9.825226
		c0,4.802246-1.159149,8.693695-3.477478,11.64679c-2.318298,2.953094-5.60257,4.802216-9.880432,5.547394
		c2.207916,1.573151,4.001862,3.311859,5.437012,5.161011c1.43515,1.876709,3.367065,5.216187,5.850983,10.046021
		l6.154572,12.033173h-12.198761l-7.396515-13.413116c-2.649506-4.857422-4.471039-7.893311-5.409393-9.135254
		c-0.965973-1.214355-1.959534-2.042328-3.035889-2.511505c-1.076355-0.469208-2.787506-0.690002-5.133423-0.690002h-2.097504
		v25.749878H366.348877z M376.532928,281.544128h7.562103c4.636627,0,7.589722-0.220795,8.831665-0.607178
		c1.269562-0.414001,2.290741-1.241974,3.091095-2.456329c0.772766-1.241943,1.159149-2.897888,1.159149-4.940216
		c0-1.959534-0.386383-3.532654-1.159149-4.719421c-0.800354-1.214355-1.849121-2.014709-3.201477-2.483917
		c-0.965973-0.303589-3.725861-0.441559-8.307281-0.441559h-7.976105V281.544128z"/>
	<path d="M421.629639,297.027161l9.963257-1.186768c1.131561,7.893311,4.802216,11.839966,11.039581,11.839966
		c3.091095,0,5.519806-0.800385,7.286133-2.428711c1.766327-1.600739,2.649506-3.615479,2.649506-5.988983
		c0-1.407562-0.303589-2.594299-0.938354-3.58786c-0.607178-0.965973-1.545563-1.766357-2.815125-2.401123
		c-1.269531-0.634766-4.30542-1.683533-9.162842-3.173889c-4.360657-1.324738-7.534515-2.759888-9.549255-4.30542
		c-2.042328-1.517944-3.643066-3.560272-4.829834-6.071777c-1.186737-2.511505-1.793915-5.188629-1.793915-8.086517
		c0-3.367065,0.772766-6.402954,2.29071-9.080048c1.545532-2.704712,3.643066-4.719452,6.347778-6.099396
		c2.677094-1.379944,6.016571-2.069916,9.963226-2.069916c5.961365,0,10.597992,1.628326,13.937469,4.857422
		s5.105835,7.838104,5.299011,13.827087l-10.211609,0.551971c-0.469208-3.311859-1.43515-5.630188-2.925507-6.927338
		c-1.490356-1.324738-3.58786-1.987122-6.347748-1.987122c-2.759918,0-4.857422,0.57959-6.347778,1.711121
		c-1.490356,1.15918-2.235535,2.566711-2.235535,4.277863c0,1.683533,0.662384,3.091095,2.01474,4.250244
		c1.352356,1.131561,4.471039,2.401093,9.300842,3.781067c5.133423,1.490326,8.859283,3.035889,11.149994,4.691803
		c2.263123,1.628357,4.029449,3.753479,5.216217,6.347778c1.214355,2.594299,1.821533,5.740601,1.821533,9.438843
		c0,5.381805-1.655945,9.880432-4.940216,13.523499c-3.31189,3.643066-8.4729,5.4646-15.483032,5.4646
		C429.936951,318.195557,423.037201,311.130219,421.629639,297.027161z"/>
</g>
<g>
	<path d="M310.000977,27.157398c-7.948517-9.825237-16.628387-16.807781-26.053436-20.947628
		C274.508667,2.069924,260.529785,0,242.01088,0h-72.806122h-0.482986h-18.972565l16.828476,41.050037h17.463257l0.006897,0.01725
		h24.747665h18.215332h7.798431v0.094872c11.770966,0.206989,20.181763,0.874542,24.823547,2.057846
		c7.506927,1.876732,13.882294,5.781986,19.126099,11.74337s9.107666,14.116879,11.591583,24.480297
		s3.725861,24.535492,3.725861,42.502434c0,17.332153-1.214355,31.269638-3.643066,41.867661
		c-2.428711,10.570404-5.492188,18.325714-9.19046,23.238342c-3.698273,4.912613-8.445282,8.555679-14.241089,10.98439
		c-5.795776,2.428711-15.151825,3.643066-28.068146,3.643066h-5.816483h-11.67955L142.809784,0H92.313995L0.374886,242.746841
		h50.675182l19.526279-54.977158h94.50927l20.688889,54.977158h0.810715h50.863205h6.715164
		c16.200607,0,29.461929-2.29071,39.783951-6.872147c10.308197-4.581421,19.09848-11.398376,26.384613-20.450836
		c7.272339-9.052475,13.28891-21.334015,18.022125-36.84465c4.74704-15.51062,7.120544-33.753555,7.120544-54.728775
		c0-23.279739-2.263123-42.764626-6.789337-58.440842C324.173035,49.733368,317.935669,36.982635,310.000977,27.157398z
		 M85.160683,146.702393l31.983772-90.069283l32.604752,90.069283H85.160683z"/>
	<path d="M433.98941,195.386993c-10.404816-18.988098-18.622437-32.152817-24.652802-39.494141
		c-6.030396-7.341324-13.656311-14.103088-22.879547-20.285248c17.972107-2.980698,31.835419-10.26683,41.591644-21.844597
		c9.754517-11.591576,14.63092-26.881409,14.63092-45.869514c0-15.013844-3.191132-27.902569-9.576843-38.666172
		s-14.542938-18.325724-24.475128-22.686363S382.141266,0,358.966736,0h-76.378448
		c1.747345,0.53128,3.603394,1.015988,5.128235,1.640414c10.096039,4.139848,19.391724,11.12239,27.906006,20.947626
		c4.557281,5.269682,8.498779,11.52775,12.005554,18.479246h17.326996c19.272705,0,30.919495,0.607178,34.940308,1.821529
		c5.675049,1.766338,10.168518,4.995419,13.478668,9.687244s4.966095,10.9016,4.966095,18.629314
		c0,8.058899-1.655945,14.517067-4.966095,19.374481c-3.31015,4.857422-7.625946,8.086502-12.947388,9.687248
		c-5.312805,1.59729-17.701294,2.395935-37.155121,2.399384v42.354095c3.927673,1.916397,7.701843,4.800491,11.260376,9.050735
		c4.020844,4.802216,11.64679,16.752579,22.85025,35.851074l31.155792,52.824448h51.346191L433.98941,195.386993z"/>
</g>
</svg>
